PathFileType	4	(X/Y/Z)	OpenSim_Sub09_EMGBaseline_Accel.trc
DataRate	CameraRate	NumFrames	NumMarkers	Units	OrigDataRate	OrigDataStartFrame	OrigNumFrames
100	100	37	8	m	100	6389	7301
Frame#	Time	torso_imu_offset_imu	pelvis_imu_offset_imu	tibia_r_imu_offset_imu	femur_r_imu_offset_imu	tibia_l_imu_offset_imu	femur_l_imu_offset_imu	toes_r_imu_offset_imu	toes_l_imu_offset_imu
				X1	Y1	Z1	X2	Y2	Z2	X3	Y3	Z3	X4	Y4	Z4	X5	Y5	Z5	X6	Y6	Z6	X7	Y7	Z7	X8		Y8	Z8	

6389	63.88000000	11.72135400	-0.42871200	8.02311900	13.00750200	-2.18126100	4.49422000	12.70620700	0.92958000	3.67097700	11.40561900	-1.23287500	1.10134900	14.55732600	1.39870800	4.65442000	15.02189300	-0.23682700	0.44487300	4.79361900	-2.90008300	9.83817700	8.64882700	0.14516800	13.48809800
6390	63.89000000	11.25943000	-0.30812000	7.99639100	12.40773500	-2.03864000	4.51588400	13.39988600	0.53887400	4.31007100	11.72233800	-1.01712100	1.52397600	12.01478800	0.41122100	4.66497200	13.69982000	1.39004400	-1.12327700	4.33135700	-2.98102600	10.14556500	8.33726300	0.78064800	12.08318900
6391	63.90000000	10.48526500	-0.20809400	7.74817300	11.51629500	-1.43148200	4.46011900	13.95485300	0.95680300	4.36647000	11.99723200	-0.88685700	1.76461100	9.97206100	-1.40370600	4.19792200	11.07491500	2.53383100	-1.46142900	5.01773000	-2.33233700	10.13419200	12.04570799	2.77761200	14.30279000
6392	63.91000000	9.78317400	-0.09901000	7.27072900	10.69695800	-0.65359200	4.74589900	14.41333600	1.76177100	3.96713200	11.79308000	-0.95240500	1.80047100	9.38272400	-2.97459500	1.20755800	9.07272900	2.49771800	-1.43659300	5.76696000	-1.15999100	10.48086100	15.67953901	2.28824600	15.27701801
6393	63.92000000	9.65775700	-0.04455400	6.87302300	10.12194300	0.01125300	4.82306000	14.65273600	2.15668100	2.62824100	10.94033800	-0.69438500	1.79473800	10.05289600	-4.49028400	-1.33781700	8.94516000	2.19267300	-2.34605300	7.82360900	-1.89580900	9.92192600	3.11535701	3.97336100	9.15221900
6394	63.93000000	9.42039900	0.09607300	6.64915000	9.34764500	0.43881100	4.59589400	14.67467500	1.37376700	0.42881300	10.33261700	0.05474400	1.79504800	9.60190800	-4.45998000	-3.61725200	8.69434200	2.14310800	-3.00314100	10.94435100	-2.27824200	9.89120600	7.19566099	5.36039000	11.76785500
6395	63.94000000	8.74314600	0.39541300	6.26264300	8.86271900	0.47969300	4.57551700	14.12954300	-0.22328300	-1.67012700	9.79812500	0.94217700	1.44216700	8.39014400	-3.40287300	-4.35102400	8.29498600	2.34277400	-2.56166700	12.30634900	-3.23425999	11.82140800	7.15540300	2.39888600	10.91103400
6396	63.95000000	8.36511600	0.69433400	5.87448300	8.51668900	0.53088800	4.71446800	12.71299100	-1.47480700	-1.70039900	9.57291400	1.52359900	1.31340000	7.51022700	-3.74784400	-5.23312800	8.08331300	1.89249700	-2.36934000	12.77761200	-10.11276400	9.74151300	7.12802800	2.55873700	11.52805400
6397	63.96000000	8.35766400	0.92718800	5.72878000	8.47037800	0.76577900	4.66859600	11.16322100	-1.48599600	-1.01933700	9.96769000	1.72571300	1.65753900	7.91536600	-5.07563300	-5.02442800	8.15904700	1.13091800	-2.42410300	12.52596300	-9.09496500	9.16432400	6.14610400	2.67286600	10.97547900
6398	63.97000000	8.74213700	1.06676100	5.82734800	8.73242800	0.87080400	4.45365700	10.02118700	-0.09878200	-1.83613700	10.59629500	1.60097800	2.24866000	8.73113500	-7.03167200	-4.07615400	8.52791700	0.31474500	-2.36548700	11.96396400	-7.80553600	8.34433900	5.69981900	2.81244200	11.12826500
6399	63.98000000	8.97906000	1.14773000	5.99802400	9.17015200	0.91125700	4.24766200	9.21968900	2.59624900	-2.31971400	11.17459600	1.67166000	2.57313000	8.39934800	-9.56307700	-3.01552300	9.02161500	-0.25806600	-2.57168800	12.19785600	-7.69237200	9.15267800	5.21082000	3.37114300	10.97528500
6400	63.99000000	8.95624300	1.16409400	6.12337000	9.46210600	0.72914100	4.05716700	8.54050100	5.47586700	-2.27271400	11.35898800	1.93850400	2.68277800	7.93695400	-11.70734700	-1.89049100	9.38668300	-0.24504900	-2.69579400	10.21429000	-7.27389900	9.98453900	5.39244200	3.19101700	10.84347900
6401	64	8.81428200	1.12480100	6.19134000	9.72995200	0.28922700	3.93949100	7.90451700	7.23417100	-2.60443500	11.34757500	2.09898500	2.54394000	8.52509400	-9.69508501	-0.33951500	9.51313300	0.31689600	-2.54017100	9.72741500	-5.20310200	6.92610601	5.44767400	2.21465400	10.92909300
6402	64.01000000	8.89131000	1.06947700	6.24509200	9.93031600	-0.44090900	3.89989800	7.42955900	8.06747000	-2.70072100	11.43243000	1.80973900	2.20060400	9.32581000	-4.38788501	-0.13362400	9.74265800	1.07259400	-2.12399200	3.54954901	-2.34358500	3.52914700	5.00175100	1.89930000	11.33666300
6403	64.02000000	9.05743100	0.93491200	6.30980600	10.05883900	-1.16499200	3.79666300	7.35275900	9.22338500	-1.76378000	11.36048200	0.93894600	1.96205500	10.40146700	-0.10479800	-0.12167700	10.00783700	1.73205200	-1.86167200	0.43703298	-4.68045600	10.35318399	5.11987200	2.18381100	11.16186600
6404	64.03000000	8.90528200	0.89533500	6.39587800	9.78129900	-1.71033600	3.80008000	6.93213500	10.62472700	-1.73151900	11.31291100	-0.13097800	2.15805100	11.53147800	2.69518100	2.03758200	9.97697700	2.24133000	-1.95114900	25.63105798	-4.56626200	18.25054100	5.38258500	2.47821800	10.74362800
6405	64.04000000	8.91639500	0.83469700	6.40973600	9.53125900	-2.05565100	3.79142500	5.00354700	11.87377000	-3.71159400	11.50314600	-0.78462000	2.41075800	12.22996600	5.28078300	2.68960500	9.62786000	2.47091500	-1.98827100	18.90262302	-10.15208700	14.46612501	5.33440500	2.47661200	10.80596100
6406	64.05000000	9.12694400	0.69532100	6.43141700	9.45011600	-2.15339800	3.77944600	2.90365700	13.12986600	-1.70785300	11.59955700	-1.21220600	2.39365300	11.30533200	5.75497200	1.82505900	9.55976200	2.36232600	-1.72387800	1.34597302	-10.53744000	9.58603801	5.21446400	2.25601200	10.92107900
6407	64.06000000	9.27339400	0.59304500	6.49050900	9.45710700	-2.00827500	3.65693800	1.91100400	12.25036000	-0.03789500	11.72455400	-1.30545800	2.48505100	9.90818700	3.00005900	0.25038700	9.56035600	2.01902100	-1.41983900	-9.02511300	-11.84595000	6.61112400	4.79754400	2.52285200	11.17157500
6408	64.07000000	9.09294300	0.55070500	6.58095800	9.46937000	-1.85308900	3.55353000	2.36876900	10.57185400	-0.40363100	11.53678100	-1.28232100	2.62615300	9.71489100	-1.12007000	-1.33962100	9.54133800	1.51715500	-1.24155300	-4.48086801	-6.98692901	7.11326100	5.26744500	2.57921400	10.67478700
6409	64.08000000	8.83475700	0.57544600	6.62977100	9.38739600	-1.64306000	3.39301800	3.15723700	9.13393800	-0.52032800	11.21219700	-0.94286500	2.60784200	9.58456800	-4.33114600	-2.10920100	9.22376800	0.88896800	-1.39542900	0.36522200	-4.44661900	7.75050400	5.05544700	2.80964400	10.67110900
6410	64.09000000	8.61939400	0.58928900	6.57780400	9.37253800	-1.31905200	3.37971900	3.62165500	8.07914800	0.52429600	10.77365800	-0.63162200	2.47690200	8.90136100	-6.26506900	-2.13415600	8.91440600	0.37258800	-1.61445500	1.97562400	-2.10936000	8.71953900	5.25354000	2.73635700	10.67121400
6411	64.10000000	8.49205400	0.56379800	6.49523500	9.22342900	-1.12679300	3.33846200	3.54325000	6.80690500	1.13149200	10.31168900	-0.21852300	2.48545400	8.32228700	-6.56123500	-1.43693900	8.73637300	-0.03865100	-1.81592100	2.59392600	-1.37968100	8.95350700	4.94333400	2.71572800	10.80136200
6412	64.11000000	8.36514100	0.56067000	6.48247700	9.10201300	-0.96282400	3.27963300	3.17253000	5.64398200	0.43206400	9.95019400	0.14943000	2.60362600	8.50764500	-5.34134300	-0.87605300	8.88491100	-0.23479300	-1.98087300	2.99556100	-1.66074300	8.74749800	4.75956400	2.75581400	10.82271200
6413	64.12000000	8.19483400	0.51811200	6.43178500	8.92466100	-0.76663900	3.28472100	2.89935500	5.20979700	0.13324400	9.67069500	0.55468100	2.65279400	9.16230100	-3.33983800	-0.55844400	9.08519400	-0.25877600	-1.90321400	2.79309500	-2.26304100	8.25617900	5.06288600	2.45010600	10.82041300
6414	64.13000000	8.07857700	0.49830400	6.38970600	8.72142900	-0.75462700	3.30636900	2.79708300	4.98133600	0.22573600	9.35291000	0.77910300	2.64581300	9.90258500	-1.69019800	-0.69315500	9.32171200	-0.10383400	-1.76801900	2.69364100	-2.29549100	8.05167600	5.22436800	2.26457500	10.77447100
6415	64.14000000	7.97421200	0.48724800	6.38676900	8.47830200	-0.74575800	3.31528900	2.95209400	4.57276300	0.14335100	9.19971900	1.06896900	2.56565900	10.45597900	-0.67230300	-0.23666000	9.41626500	0.16711900	-1.76428000	3.18558800	-1.80057900	8.18708000	4.71600900	2.41409200	10.91324300
6416	64.15000000	7.91459900	0.49050700	6.41167500	8.28553100	-0.79651400	3.33020600	3.41976500	4.34549300	0.32766300	8.83050900	0.96734600	2.57358300	10.43105500	-0.31648200	0.09002200	9.48833100	0.56949400	-1.74203200	3.85603800	-0.94604600	8.43836200	4.82762400	2.56575900	11.08966900
6417	64.16000000	7.84416500	0.50608800	6.40549600	8.20400600	-0.78372200	3.31300400	4.20935400	4.41643700	0.32981200	8.56829600	0.94306100	2.53397000	9.87102400	-0.28421900	0.30434900	9.54147200	1.10529800	-1.70343600	4.23777200	-0.36937700	8.87603300	5.15784800	2.33804900	10.82115200
6418	64.17000000	7.79679400	0.54025800	6.41712200	8.29503300	-0.88814900	3.23373600	5.26663200	4.92776400	0.32026100	8.33417700	0.63543400	2.54164900	9.68191600	-0.64604200	-0.01162900	9.47010600	1.75842600	-1.66652700	4.65296200	0.21663800	9.21724200	5.18634500	2.23005200	10.88300100
6419	64.18000000	7.74226600	0.52059400	6.42735700	8.25704500	-0.94031100	3.16299700	6.13286900	5.58585800	0.43507200	8.12029900	0.33251400	2.46969000	9.71352700	-1.27678600	-0.21539600	9.36843400	2.33514700	-1.55161100	5.30795800	0.72443200	9.68767600	5.08531700	2.17604300	10.79946600
6420	64.19000000	7.69634000	0.60009000	6.45627600	8.33473400	-0.88650200	3.12386800	6.48205700	5.95724800	0.38954300	7.89522700	0.18499800	2.42148300	9.88714100	-1.53619800	-0.39700300	9.09748800	2.81997600	-1.47738600	5.96663700	0.73675300	9.96849000	4.78495200	2.38884300	11.02405800
6421	64.20000000	7.78239000	0.63849800	6.40993000	8.40295400	-0.94289800	3.02096800	6.41991400	5.92516300	0.37443100	7.70947900	-0.10171400	2.29858700	9.79197700	-1.57240600	-0.75348700	8.85611500	3.08414400	-1.45903800	6.49059800	0.33785400	9.85906900	4.94452000	2.36076600	10.75611400
6422	64.21000000	7.89382300	0.67460400	6.43066700	8.59652800	-0.98425900	3.06323300	6.28663200	5.33233400	0.53635800	7.60686600	-0.48851000	2.16017500	9.74328000	-1.31561500	-1.06580000	8.70130900	3.09250100	-1.52326500	6.54077400	-0.30555800	9.61121000	5.04781100	2.36573000	10.83146500
6423	64.22000000	8.14696600	0.74636600	6.44457200	8.80934000	-1.05147500	2.98576600	6.39317600	4.37600000	0.49458000	7.61706900	-0.79388300	2.18353100	9.87511100	-1.00410300	-1.24537200	8.65185500	3.01516200	-1.70218600	6.84204700	-0.44935100	9.48108200	5.31456300	2.37574100	10.64702800
6424	64.23000000	8.40564600	0.75300100	6.48470700	9.01115800	-1.22987400	2.84408400	6.88267700	4.21219800	0.72659100	7.72490200	-1.00743700	2.35516100	10.06716600	-0.40318900	-1.22952000	8.60993200	2.85266300	-1.87255000	7.82693500	-0.13018700	9.82707200	5.05176200	2.58252100	10.79785300
6425	64.24000000	8.48183700	0.75500200	6.58011600	9.11292700	-1.46548700	2.65965400	7.79616400	5.14838500	1.28108700	7.69394900	-1.30964400	2.55879200	10.10488400	0.09272200	-1.15113000	8.76961400	2.50737600	-2.09275800	9.31100800	-0.08463600	10.73687800	4.76718900	2.61546600	10.91336600
